<svg width="109" height="56" viewBox="0 0 109 56" fill="none" xmlns="http://www.w3.org/2000/svg">
<ellipse cx="2.96196" cy="52.8182" rx="2.96196" ry="3.18182" fill="#DADADA"/>
<ellipse cx="2.96196" cy="42.6364" rx="2.96196" ry="3.18182" fill="#DADADA"/>
<ellipse cx="2.96196" cy="32.4545" rx="2.96196" ry="3.18182" fill="#DADADA"/>
<ellipse cx="8.88591" cy="26.0909" rx="2.96196" ry="3.18182" fill="#DADADA"/>
<ellipse cx="8.88591" cy="17.1818" rx="2.96196" ry="3.18182" fill="#DADADA"/>
<ellipse cx="2.96196" cy="3.18182" rx="2.96196" ry="3.18182" transform="matrix(-1 0 0 1 29.6195 49.6364)" fill="#DADADA"/>
<ellipse cx="2.96196" cy="3.18182" rx="2.96196" ry="3.18182" transform="matrix(-1 0 0 1 29.6195 39.4546)" fill="#DADADA"/>
<ellipse cx="2.96196" cy="3.18182" rx="2.96196" ry="3.18182" transform="matrix(-1 0 0 1 29.6195 29.2727)" fill="#DADADA"/>
<ellipse cx="2.96196" cy="3.18182" rx="2.96196" ry="3.18182" transform="matrix(-1 0 0 1 46.2065 49.6364)" fill="#DADADA"/>
<ellipse cx="2.96196" cy="3.18182" rx="2.96196" ry="3.18182" transform="matrix(-1 0 0 1 46.2065 39.4546)" fill="#DADADA"/>
<ellipse cx="2.96196" cy="3.18182" rx="2.96196" ry="3.18182" transform="matrix(-1 0 0 1 46.2065 29.2727)" fill="#DADADA"/>
<ellipse cx="2.96196" cy="3.18182" rx="2.96196" ry="3.18182" transform="matrix(-1 0 0 1 46.2065 20.3636)" fill="#DADADA"/>
<ellipse cx="2.96196" cy="3.18182" rx="2.96196" ry="3.18182" transform="matrix(-1 0 0 1 46.2065 10.1818)" fill="#DADADA"/>
<ellipse cx="2.96196" cy="3.18182" rx="2.96196" ry="3.18182" transform="matrix(-1 0 0 1 46.2065 0)" fill="#DADADA"/>
<ellipse cx="2.96196" cy="3.18182" rx="2.96196" ry="3.18182" transform="matrix(-1 0 0 1 55.6848 0)" fill="#DADADA"/>
<ellipse cx="2.96196" cy="3.18182" rx="2.96196" ry="3.18182" transform="matrix(-1 0 0 1 65.1631 0)" fill="#DADADA"/>
<ellipse cx="2.96196" cy="3.18182" rx="2.96196" ry="3.18182" transform="matrix(-1 0 0 1 65.1631 0)" fill="#DADADA"/>
<ellipse cx="2.96196" cy="3.18182" rx="2.96196" ry="3.18182" transform="matrix(-1 0 0 1 56.8696 49.6364)" fill="#DADADA"/>
<ellipse cx="2.96196" cy="3.18182" rx="2.96196" ry="3.18182" transform="matrix(-1 0 0 1 66.3479 49.6364)" fill="#DADADA"/>
<ellipse cx="2.96196" cy="3.18182" rx="2.96196" ry="3.18182" transform="matrix(-1 0 0 1 66.3479 49.6364)" fill="#DADADA"/>
<ellipse cx="2.96196" cy="3.18182" rx="2.96196" ry="3.18182" transform="matrix(-1 0 0 1 71.7556 8.11523)" fill="#DADADA"/>
<ellipse cx="2.96196" cy="3.18182" rx="2.96196" ry="3.18182" transform="matrix(-1 0 0 1 71.7556 18.297)" fill="#DADADA"/>
<ellipse cx="2.96196" cy="3.18182" rx="2.96196" ry="3.18182" transform="matrix(-1 0 0 1 71.7556 29.7516)" fill="#DADADA"/>
<ellipse cx="2.96196" cy="3.18182" rx="2.96196" ry="3.18182" transform="matrix(-1 0 0 1 71.7556 39.9333)" fill="#DADADA"/>
<ellipse cx="2.96196" cy="3.18182" rx="2.96196" ry="3.18182" transform="matrix(-1 0 0 1 17.7717 29.2727)" fill="#DADADA"/>
<ellipse cx="2.96196" cy="3.18182" rx="2.96196" ry="3.18182" transform="matrix(-1 0 0 1 23.6957 22.9091)" fill="#DADADA"/>
<ellipse cx="2.96196" cy="3.18182" rx="2.96196" ry="3.18182" transform="matrix(-1 0 0 1 23.6957 14)" fill="#DADADA"/>
<ellipse cx="14.8097" cy="7.00006" rx="2.96196" ry="3.18182" fill="#DADADA"/>
<ellipse cx="82.3423" cy="52.8182" rx="2.96196" ry="3.18182" fill="#DADADA"/>
<ellipse cx="82.3423" cy="42.6364" rx="2.96196" ry="3.18182" fill="#DADADA"/>
<ellipse cx="82.3423" cy="32.4545" rx="2.96196" ry="3.18182" fill="#DADADA"/>
<ellipse cx="88.2664" cy="26.0909" rx="2.96196" ry="3.18182" fill="#DADADA"/>
<ellipse cx="88.2664" cy="17.1818" rx="2.96196" ry="3.18182" fill="#DADADA"/>
<ellipse cx="2.96196" cy="3.18182" rx="2.96196" ry="3.18182" transform="matrix(-1 0 0 1 109 49.6364)" fill="#DADADA"/>
<ellipse cx="2.96196" cy="3.18182" rx="2.96196" ry="3.18182" transform="matrix(-1 0 0 1 109 39.4546)" fill="#DADADA"/>
<ellipse cx="2.96196" cy="3.18182" rx="2.96196" ry="3.18182" transform="matrix(-1 0 0 1 109 29.2727)" fill="#DADADA"/>
<ellipse cx="2.96196" cy="3.18182" rx="2.96196" ry="3.18182" transform="matrix(-1 0 0 1 97.1521 29.2727)" fill="#DADADA"/>
<ellipse cx="2.96196" cy="3.18182" rx="2.96196" ry="3.18182" transform="matrix(-1 0 0 1 103.076 22.9091)" fill="#DADADA"/>
<ellipse cx="2.96196" cy="3.18182" rx="2.96196" ry="3.18182" transform="matrix(-1 0 0 1 103.076 14)" fill="#DADADA"/>
<ellipse cx="94.1902" cy="7.00006" rx="2.96196" ry="3.18182" fill="#DADADA"/>
</svg>
